<?xml version="1.0" encoding="utf-8"?>
<svg width="512" height="512" viewBox="0 0 512 512" fill="none" xmlns="http://www.w3.org/2000/svg">
  <g>
    <g transform="translate(93 78)">
      <g>
        <path d="M181.317 7.13766C181.02 6.85474 180.717 6.57902 180.408 6.31055C180.098 6.04206 179.782 5.78109 179.46 5.52765C179.138 5.2742 178.81 5.02856 178.477 4.79074C178.143 4.55293 177.804 4.32317 177.459 4.1015C177.114 3.87983 176.765 3.66649 176.41 3.46149C176.055 3.25648 175.696 3.06003 175.331 2.87216C174.967 2.68428 174.599 2.50517 174.226 2.33485C173.853 2.16453 173.477 2.00317 173.096 1.85077C172.716 1.69839 172.332 1.55514 171.945 1.42103C171.558 1.28692 171.167 1.16211 170.774 1.0466C170.381 0.931078 169.986 0.824986 169.587 0.728317C169.189 0.631649 168.789 0.544514 168.386 0.466917C167.984 0.389318 167.58 0.321342 167.174 0.262987C166.769 0.204636 166.362 0.15597 165.954 0.116993C165.546 0.0780182 165.137 0.0487766 164.728 0.0292664C164.319 0.00975609 163.909 0 163.5 0C163.09 0 162.68 0.00975609 162.271 0.0292664C161.862 0.0487766 161.453 0.0780182 161.045 0.116993C160.637 0.15597 160.23 0.204636 159.825 0.262987C159.419 0.321342 159.015 0.389318 158.613 0.466917C158.21 0.544514 157.81 0.631649 157.412 0.728317C157.014 0.824986 156.618 0.931078 156.225 1.0466C155.832 1.16211 155.441 1.28692 155.054 1.42103C154.667 1.55514 154.283 1.69839 153.903 1.85077C153.522 2.00317 153.146 2.16453 152.773 2.33485C152.4 2.50517 152.032 2.68428 151.668 2.87216C151.304 3.06003 150.944 3.25648 150.589 3.46149C150.235 3.66649 149.885 3.87983 149.54 4.1015C149.195 4.32317 148.856 4.55293 148.522 4.79074C148.189 5.02856 147.861 5.2742 147.539 5.52765C147.217 5.78109 146.901 6.04206 146.591 6.31055C146.282 6.57902 145.979 6.85474 145.682 7.13766C145.682 7.13766 7.99067 138.544 7.99067 138.544C7.36095 139.145 6.76315 139.777 6.1973 140.438C5.63144 141.099 5.10039 141.788 4.60418 142.503C4.10795 143.218 3.6491 143.957 3.2276 144.718C2.8061 145.48 2.4241 146.261 2.08162 147.061C1.73913 147.861 1.4379 148.677 1.17793 149.508C0.917953 150.339 0.700564 151.18 0.52576 152.033C0.350956 152.886 0.219627 153.745 0.131776 154.611C0.0439255 155.477 0 156.346 0 157.216C0 158.087 0.0439255 158.955 0.131776 159.821C0.219627 160.687 0.350956 161.547 0.52576 162.399C0.700564 163.252 0.917953 164.094 1.17793 164.925C1.4379 165.755 1.73913 166.571 2.08162 167.371C2.4241 168.171 2.8061 168.952 3.2276 169.714C3.6491 170.476 4.10795 171.214 4.60418 171.929C5.10039 172.645 5.63144 173.333 6.1973 173.994C6.76315 174.656 7.36095 175.287 7.99067 175.888C7.99067 175.888 145.682 307.296 145.682 307.296C145.979 307.578 146.282 307.854 146.591 308.122C146.901 308.39 147.217 308.65 147.539 308.904C147.861 309.158 148.189 309.405 148.522 309.643C148.856 309.881 149.195 310.109 149.54 310.331C149.885 310.553 150.235 310.765 150.589 310.971C150.944 311.177 151.304 311.374 151.668 311.56C152.032 311.748 152.401 311.928 152.773 312.098C153.146 312.268 153.522 312.43 153.903 312.582C154.283 312.734 154.667 312.878 155.054 313.012C155.441 313.146 155.832 313.27 156.225 313.386C156.618 313.501 157.014 313.607 157.412 313.705C157.81 313.801 158.21 313.887 158.613 313.965C159.015 314.043 159.419 314.111 159.825 314.169C160.23 314.227 160.637 314.277 161.045 314.315C161.453 314.353 161.861 314.383 162.271 314.403C162.68 314.423 163.09 314.433 163.5 314.433C163.909 314.433 164.319 314.423 164.728 314.403C165.137 314.383 165.546 314.353 165.954 314.315C166.362 314.277 166.769 314.227 167.174 314.169C167.58 314.111 167.984 314.043 168.386 313.965C168.789 313.887 169.189 313.801 169.587 313.705C169.986 313.607 170.381 313.501 170.774 313.386C171.167 313.27 171.558 313.146 171.945 313.012C172.332 312.878 172.716 312.734 173.096 312.582C173.477 312.43 173.853 312.268 174.226 312.098C174.599 311.928 174.967 311.748 175.331 311.56C175.696 311.374 176.055 311.177 176.41 310.971C176.765 310.765 177.114 310.553 177.459 310.331C177.804 310.109 178.143 309.881 178.477 309.643C178.81 309.405 179.138 309.158 179.46 308.904C179.782 308.65 180.098 308.39 180.408 308.122C180.717 307.854 181.02 307.578 181.317 307.296C181.317 307.296 319.009 175.888 319.009 175.888C319.639 175.287 320.235 174.656 320.801 173.994C321.368 173.333 321.898 172.645 322.394 171.929C322.89 171.214 323.348 170.476 323.771 169.714C324.193 168.952 324.575 168.171 324.917 167.371C325.259 166.571 325.561 165.755 325.822 164.925C326.082 164.094 326.3 163.252 326.474 162.399C326.648 161.547 326.78 160.687 326.868 159.821C326.956 158.955 327 158.087 327 157.216C327 156.346 326.956 155.477 326.868 154.611C326.78 153.745 326.648 152.886 326.474 152.033C326.3 151.18 326.082 150.339 325.822 149.508C325.561 148.677 325.259 147.861 324.917 147.061C324.575 146.261 324.193 145.48 323.771 144.718C323.348 143.957 322.89 143.218 322.394 142.503C321.898 141.788 321.368 141.099 320.801 140.438C320.235 139.777 319.639 139.145 319.009 138.544C319.009 138.544 181.317 7.13766 181.317 7.13766ZM218.8 65.4716C217.96 64.6804 217.102 63.9094 216.223 63.1587C215.345 62.4081 214.451 61.6786 213.54 60.97C212.628 60.2615 211.699 59.5747 210.755 58.9102C209.811 58.2455 208.852 57.6033 207.878 56.984C206.903 56.3645 205.915 55.7684 204.913 55.1958C203.91 54.6229 202.894 54.0742 201.865 53.5493C200.837 53.0245 199.796 52.524 198.744 52.0484C197.692 51.5728 196.629 51.1219 195.556 50.6963C194.482 50.2707 193.399 49.8707 192.307 49.4963C191.215 49.1218 190.114 48.7732 189.006 48.4508C187.897 48.1283 186.781 47.8319 185.658 47.562C184.536 47.2921 183.407 47.0489 182.273 46.8322C181.139 46.6155 180 46.4258 178.857 46.263C177.714 46.1001 176.568 45.9642 175.418 45.8554C174.269 45.7467 173.117 45.6651 171.964 45.6104C170.81 45.556 169.656 45.5288 168.502 45.5288C167.347 45.5288 166.193 45.556 165.04 45.6104C163.886 45.6651 162.735 45.7467 161.585 45.8554C160.436 45.9642 159.289 46.1001 158.146 46.263C157.003 46.4258 155.864 46.6155 154.73 46.8322C153.596 47.0489 152.468 47.2921 151.345 47.562C150.222 47.8319 149.107 48.1283 147.998 48.4508C146.889 48.7732 145.789 49.1218 144.696 49.4963C143.604 49.8707 142.521 50.2707 141.448 50.6963C140.374 51.1219 139.312 51.5728 138.26 52.0484C137.207 52.524 136.167 53.0245 135.139 53.5493C134.11 54.0742 133.095 54.6229 132.092 55.1958C131.089 55.7684 130.101 56.3645 129.126 56.9838C128.152 57.6033 127.192 58.2455 126.248 58.9102C125.304 59.5747 124.376 60.2613 123.464 60.9698C122.552 61.6784 121.658 62.4079 120.78 63.1587C119.903 63.9094 119.044 64.6804 118.203 65.4716C118.203 65.4716 73.2669 107.75 73.2669 107.75C72.358 108.605 71.4714 109.483 70.6072 110.383C69.743 111.284 68.9023 112.206 68.0851 113.149C67.2678 114.092 66.4753 115.056 65.7071 116.04C64.939 117.023 64.1967 118.026 63.4798 119.048C62.7629 120.069 62.0724 121.109 61.4085 122.165C60.7447 123.222 60.1082 124.295 59.4989 125.385C58.8897 126.474 58.3086 127.578 57.7558 128.697C57.203 129.816 56.6789 130.948 56.1837 132.094C55.6887 133.24 55.2231 134.397 54.7869 135.567C54.351 136.736 53.945 137.916 53.569 139.106C53.1931 140.296 52.8477 141.495 52.533 142.703C52.2183 143.91 51.9343 145.125 51.6816 146.348C51.4289 147.57 51.2074 148.798 51.0171 150.032C50.8269 151.265 50.6684 152.503 50.5413 153.744C50.4143 154.986 50.3189 156.23 50.2552 157.476C50.1916 158.723 50.1598 159.97 50.1598 161.218C50.1598 162.466 50.1916 163.714 50.2552 164.96C50.3189 166.206 50.4143 167.45 50.5413 168.692C50.6684 169.934 50.8269 171.171 51.0171 172.405C51.2074 173.639 51.4289 174.866 51.6816 176.089C51.9343 177.311 52.2183 178.526 52.533 179.734C52.8477 180.941 53.1931 182.14 53.569 183.33C53.945 184.521 54.351 185.7 54.7869 186.87C55.2231 188.039 55.6887 189.197 56.1837 190.342C56.6789 191.488 57.203 192.62 57.7558 193.739C58.3086 194.858 58.8897 195.962 59.4989 197.052C60.1082 198.141 60.7447 199.214 61.4085 200.271C62.0724 201.327 62.7629 202.366 63.4798 203.388C64.1967 204.411 64.939 205.413 65.7071 206.398C66.4753 207.38 67.2678 208.345 68.0851 209.287C68.9023 210.23 69.743 211.152 70.6072 212.052C71.4714 212.953 72.358 213.831 73.2669 214.686C73.2669 214.686 118.203 256.965 118.203 256.965C119.044 257.755 119.903 258.527 120.78 259.278C121.658 260.028 122.552 260.758 123.464 261.467C124.376 262.175 125.304 262.862 126.248 263.526C127.192 264.19 128.152 264.832 129.126 265.453C130.101 266.071 131.089 266.667 132.092 267.24C133.095 267.814 134.11 268.362 135.139 268.887C136.167 269.413 137.207 269.913 138.26 270.387C139.312 270.863 140.374 271.314 141.448 271.74C142.521 272.166 143.604 272.566 144.696 272.94C145.789 273.315 146.889 273.663 147.998 273.985C149.107 274.307 150.222 274.603 151.345 274.873C152.468 275.144 153.596 275.388 154.73 275.604C155.864 275.82 157.003 276.01 158.146 276.174C159.289 276.336 160.436 276.472 161.585 276.58C162.735 276.69 163.886 276.772 165.04 276.826C166.193 276.88 167.347 276.908 168.502 276.908C169.656 276.908 170.81 276.88 171.964 276.826C173.117 276.772 174.269 276.69 175.418 276.58C176.568 276.472 177.714 276.336 178.857 276.174C180 276.01 181.139 275.82 182.273 275.604C183.407 275.388 184.536 275.144 185.658 274.873C186.781 274.603 187.897 274.307 189.006 273.985C190.114 273.663 191.215 273.315 192.307 272.94C193.399 272.566 194.482 272.166 195.556 271.74C196.629 271.314 197.692 270.863 198.744 270.387C199.796 269.913 200.837 269.413 201.865 268.887C202.894 268.362 203.91 267.814 204.913 267.24C205.915 266.667 206.903 266.071 207.878 265.453C208.852 264.832 209.811 264.19 210.755 263.526C211.699 262.862 212.628 262.175 213.54 261.467C214.451 260.758 215.345 260.028 216.223 259.278C217.102 258.527 217.96 257.755 218.8 256.965C218.8 256.965 263.737 214.686 263.737 214.686C264.646 213.831 265.532 212.953 266.396 212.052C267.261 211.152 268.101 210.23 268.918 209.287C269.736 208.345 270.528 207.38 271.297 206.398C272.065 205.413 272.807 204.411 273.523 203.388C274.242 202.366 274.932 201.327 275.594 200.271C276.259 199.214 276.895 198.141 277.505 197.052C278.113 195.962 278.694 194.858 279.248 193.739C279.8 192.62 280.324 191.488 280.819 190.342C281.315 189.197 281.781 188.039 282.217 186.87C282.653 185.7 283.06 184.521 283.434 183.33C283.81 182.14 284.156 180.941 284.47 179.734C284.784 178.526 285.068 177.311 285.322 176.089C285.575 174.866 285.797 173.639 285.987 172.405C286.177 171.171 286.335 169.934 286.463 168.692C286.589 167.45 286.685 166.206 286.749 164.96C286.811 163.714 286.843 162.466 286.843 161.218C286.843 159.97 286.811 158.723 286.749 157.476C286.685 156.23 286.589 154.986 286.463 153.744C286.335 152.503 286.177 151.265 285.987 150.031C285.797 148.798 285.575 147.57 285.322 146.348C285.068 145.125 284.784 143.91 284.47 142.703C284.156 141.495 283.81 140.296 283.434 139.106C283.06 137.916 282.653 136.736 282.217 135.567C281.781 134.397 281.315 133.24 280.821 132.094C280.324 130.948 279.8 129.816 279.248 128.697C278.694 127.578 278.113 126.474 277.505 125.385C276.895 124.295 276.259 123.222 275.594 122.165C274.932 121.108 274.242 120.069 273.523 119.048C272.807 118.026 272.065 117.023 271.297 116.04C270.528 115.056 269.736 114.092 268.918 113.149C268.101 112.206 267.261 111.284 266.396 110.383C265.532 109.483 264.646 108.605 263.737 107.75C263.737 107.75 218.8 65.4716 218.8 65.4716Z" fill="#FFFFFF" fill-rule="evenodd" transform="translate(0 21.873)" />
        <path d="M152.686 9.42345C152.41 9.05893 152.123 8.70265 151.827 8.35466C151.53 8.00667 151.223 7.6675 150.907 7.33718C150.59 7.00685 150.264 6.68592 149.929 6.37438C149.594 6.06285 149.251 5.7612 148.898 5.46946C148.546 5.17773 148.186 4.89639 147.817 4.62544C147.448 4.35449 147.072 4.09436 146.689 3.8451C146.305 3.59583 145.915 3.3578 145.518 3.13102C145.12 2.90425 144.717 2.68913 144.307 2.48561C143.898 2.2821 143.482 2.09057 143.062 1.91099C142.641 1.73142 142.215 1.56411 141.785 1.40906C141.354 1.25402 140.92 1.1115 140.482 0.981506C140.043 0.85151 139.601 0.734252 139.156 0.629732C138.71 0.525215 138.262 0.433608 137.812 0.354913C137.361 0.276218 136.909 0.210566 136.454 0.157958C136 0.105349 135.544 0.0658709 135.088 0.0395227C134.631 0.0131745 134.174 2.30081e-07 133.716 4.33964e-12C133.259 -2.76088e-07 132.802 0.0131734 132.345 0.0395211C131.888 0.0658689 131.433 0.105347 130.979 0.157955C130.524 0.210564 130.072 0.276214 129.621 0.354909C129.171 0.433602 128.723 0.525209 128.277 0.629728C127.832 0.734246 127.39 0.851504 126.951 0.9815C126.513 1.1115 126.078 1.25402 125.648 1.40906C125.217 1.5641 124.792 1.73141 124.371 1.91098C123.951 2.09055 123.535 2.28208 123.126 2.48561C122.716 2.68913 122.312 2.90425 121.915 3.13102C121.518 3.3578 121.128 3.59581 120.744 3.84508C120.36 4.09436 119.984 4.35447 119.616 4.62542C119.247 4.89637 118.887 5.17773 118.534 5.46946C118.182 5.76118 117.838 6.06283 117.503 6.37438C117.168 6.68592 116.843 7.00685 116.526 7.33718C116.21 7.6675 115.903 8.00667 115.606 8.35466C115.309 8.70265 115.023 9.05893 114.746 9.42345C114.746 9.42345 90.141 41.8756 90.141 41.8756C89.8235 42.2942 89.4928 42.7019 89.1484 43.0986C88.8041 43.4954 88.4469 43.8802 88.0772 44.2532C87.7072 44.6262 87.3255 44.9866 86.9319 45.3343C86.5383 45.6821 86.1336 46.0165 85.7178 46.3376C85.3018 46.6586 84.8758 46.9656 84.4398 47.2583C84.0037 47.551 83.5583 47.829 83.1039 48.0923C82.6493 48.3556 82.1865 48.6036 81.7157 48.8363C81.2447 49.069 80.7665 49.2857 80.2813 49.4868C79.7961 49.6879 79.3047 49.8726 78.8071 50.0411C78.3097 50.2095 77.807 50.3614 77.2994 50.4967C76.7918 50.632 76.2804 50.7502 75.7652 50.8517C75.2498 50.9531 74.7315 51.0374 74.2105 51.1044C73.6895 51.1714 73.1669 51.221 72.6427 51.2537C72.1184 51.2861 71.5936 51.3011 71.0684 51.2989C70.5432 51.2967 70.0186 51.2771 69.4945 51.2401C68.9705 51.203 68.4485 51.1488 67.9281 51.0772C67.9281 51.0772 20.0647 44.4959 20.0647 44.4959C7.03895 42.7048 -1.72169 51.7599 0.286383 64.7549C3.0377 82.5595 6.54935 107.172 8.20038 126.505C9.15651 137.701 9.48867 147.127 9.50225 154.745C9.5257 167.894 9.52568 189.104 9.50225 202.254C9.48867 209.871 9.15651 219.298 8.20036 230.494C6.54932 249.827 3.03766 274.439 0.286346 292.244C-1.72173 305.238 7.03891 314.295 20.0645 312.504C20.0645 312.504 67.9281 305.923 67.9281 305.923C68.4485 305.851 68.9705 305.797 69.4945 305.759C70.0186 305.721 70.5432 305.703 71.0684 305.701C71.5936 305.699 72.1184 305.713 72.6427 305.745C73.1671 305.779 73.6897 305.829 74.2105 305.895C74.7315 305.961 75.2498 306.045 75.7652 306.147C76.2806 306.249 76.792 306.367 77.2996 306.503C77.8072 306.637 78.3097 306.789 78.8073 306.957C79.3047 307.127 79.7961 307.311 80.2815 307.512C80.7667 307.714 81.2449 307.93 81.7157 308.162C82.1867 308.396 82.6495 308.644 83.1039 308.906C83.5585 309.17 84.0039 309.449 84.4398 309.741C84.876 310.035 85.302 310.341 85.7178 310.661C86.1336 310.983 86.5383 311.317 86.9319 311.666C87.3257 312.012 87.7074 312.372 88.0772 312.746C88.4471 313.12 88.8041 313.505 89.1484 313.901C89.4928 314.297 89.8237 314.705 90.141 315.123C90.141 315.123 114.746 347.575 114.746 347.575C115.023 347.94 115.309 348.296 115.606 348.644C115.903 348.992 116.21 349.332 116.526 349.662C116.843 349.993 117.168 350.313 117.503 350.625C117.838 350.935 118.182 351.237 118.534 351.529C118.887 351.821 119.247 352.104 119.616 352.374C119.984 352.644 120.36 352.904 120.744 353.154C121.128 353.404 121.518 353.642 121.915 353.868C122.312 354.095 122.716 354.311 123.126 354.513C123.535 354.717 123.951 354.909 124.371 355.089C124.792 355.267 125.217 355.435 125.648 355.589C126.078 355.745 126.513 355.887 126.951 356.018C127.39 356.148 127.832 356.264 128.277 356.37C128.723 356.474 129.171 356.566 129.621 356.644C130.072 356.722 130.524 356.788 130.979 356.842C131.433 356.894 131.888 356.934 132.345 356.96C132.802 356.986 133.259 357 133.716 357C134.174 357 134.631 356.986 135.088 356.96C135.544 356.934 136 356.894 136.454 356.842C136.909 356.788 137.361 356.722 137.812 356.644C138.262 356.566 138.71 356.474 139.156 356.37C139.601 356.264 140.043 356.148 140.482 356.018C140.92 355.887 141.354 355.745 141.785 355.589C142.215 355.435 142.641 355.267 143.062 355.089C143.482 354.909 143.898 354.717 144.307 354.513C144.717 354.311 145.12 354.095 145.518 353.868C145.915 353.642 146.305 353.404 146.689 353.154C147.072 352.904 147.448 352.644 147.817 352.374C148.186 352.104 148.546 351.821 148.898 351.529C149.251 351.237 149.594 350.935 149.929 350.625C150.264 350.313 150.59 349.993 150.907 349.662C151.223 349.332 151.53 348.992 151.827 348.644C152.123 348.296 152.41 347.94 152.686 347.575C152.686 347.575 177.292 315.123 177.292 315.123C177.609 314.705 177.94 314.297 178.284 313.901C178.629 313.505 178.986 313.12 179.356 312.746C179.725 312.372 180.107 312.012 180.501 311.666C180.895 311.317 181.299 310.983 181.715 310.661C182.131 310.341 182.557 310.035 182.993 309.741C183.429 309.449 183.874 309.17 184.329 308.906C184.783 308.644 185.246 308.396 185.717 308.162C186.188 307.93 186.666 307.714 187.151 307.512C187.637 307.311 188.128 307.127 188.626 306.957C189.123 306.789 189.626 306.637 190.133 306.503C190.641 306.367 191.152 306.249 191.668 306.147C192.183 306.045 192.701 305.961 193.222 305.895C193.743 305.829 194.266 305.779 194.79 305.745C195.314 305.713 195.839 305.699 196.364 305.701C196.89 305.703 197.414 305.721 197.938 305.759C198.462 305.797 198.984 305.851 199.505 305.923C199.505 305.923 247.368 312.504 247.368 312.504C260.394 314.295 269.154 305.238 267.147 292.244C264.396 274.439 260.884 249.827 259.231 230.494C258.277 219.298 257.945 209.871 257.931 202.254C257.907 189.104 257.907 167.894 257.931 154.745C257.945 147.127 258.277 137.701 259.231 126.505C260.884 107.172 264.396 82.5595 267.147 64.7549C269.154 51.7599 260.394 42.7048 247.368 44.4959C247.368 44.4959 199.505 51.0772 199.505 51.0772C198.984 51.1488 198.462 51.203 197.938 51.2401C197.414 51.2771 196.89 51.2967 196.364 51.2989C195.839 51.3011 195.314 51.2861 194.79 51.2537C194.266 51.221 193.743 51.1714 193.222 51.1044C192.701 51.0374 192.183 50.9531 191.668 50.8517C191.152 50.7502 190.641 50.632 190.133 50.4967C189.626 50.3614 189.123 50.2095 188.626 50.0411C188.128 49.8726 187.637 49.6879 187.151 49.4868C186.666 49.2857 186.188 49.069 185.717 48.8363C185.246 48.6036 184.783 48.3556 184.329 48.0923C183.874 47.829 183.429 47.5508 182.993 47.2581C182.557 46.9654 182.131 46.6586 181.715 46.3376C181.299 46.0165 180.895 45.6821 180.501 45.3343C180.107 44.9866 179.725 44.6262 179.356 44.2532C178.986 43.88 178.629 43.4952 178.284 43.0986C177.94 42.7019 177.609 42.2942 177.292 41.8756C177.292 41.8756 152.686 9.42345 152.686 9.42345ZM148.795 88.1749C148.639 87.8721 148.473 87.5752 148.297 87.284C148.121 86.9929 147.935 86.7079 147.739 86.4296C147.543 86.1511 147.338 85.8795 147.124 85.6152C146.91 85.3509 146.687 85.0939 146.455 84.8448C146.223 84.5957 145.983 84.3548 145.734 84.1221C145.486 83.8894 145.23 83.6652 144.966 83.4501C144.702 83.235 144.432 83.0291 144.154 82.8324C143.876 82.6357 143.592 82.4488 143.301 82.2716C143.011 82.0945 142.714 81.9274 142.413 81.7705C142.111 81.6136 141.803 81.4672 141.491 81.3313C141.179 81.1954 140.863 81.0704 140.542 80.9561C140.222 80.8419 139.898 80.7388 139.57 80.6468C139.242 80.5549 138.912 80.4741 138.579 80.4046C138.246 80.3352 137.91 80.2774 137.573 80.2309C137.236 80.1845 136.898 80.1497 136.558 80.1263C136.218 80.1031 135.879 80.0915 135.538 80.0915C135.198 80.0915 134.858 80.1031 134.518 80.1263C134.179 80.1497 133.84 80.1845 133.503 80.2309C133.166 80.2774 132.831 80.3352 132.498 80.4046C132.165 80.4741 131.834 80.5549 131.507 80.6468C131.179 80.7388 130.855 80.842 130.534 80.9563C130.213 81.0706 129.897 81.1954 129.585 81.3313C129.273 81.4672 128.966 81.6136 128.664 81.7705C128.362 81.9274 128.066 82.0945 127.775 82.2716C127.484 82.4488 127.2 82.6357 126.923 82.8324C126.645 83.0291 126.374 83.235 126.11 83.4501C125.846 83.6652 125.59 83.8894 125.342 84.1221C125.094 84.3548 124.854 84.5957 124.622 84.8448C124.39 85.0939 124.167 85.3509 123.952 85.6152C123.738 85.8795 123.533 86.1511 123.338 86.4296C123.142 86.7079 122.956 86.9929 122.78 87.284C122.604 87.5752 122.437 87.8721 122.282 88.1749C122.282 88.1749 114.443 103.391 114.443 103.391C114.343 103.585 114.239 103.777 114.13 103.966C114.022 104.156 113.909 104.343 113.793 104.527C113.676 104.712 113.556 104.894 113.431 105.073C113.307 105.252 113.178 105.428 113.046 105.602C112.914 105.775 112.778 105.946 112.638 106.114C112.498 106.281 112.355 106.446 112.208 106.607C112.06 106.768 111.91 106.926 111.756 107.081C111.602 107.236 111.445 107.387 111.284 107.535C111.123 107.683 110.96 107.827 110.793 107.967C110.626 108.108 110.456 108.245 110.283 108.378C110.11 108.511 109.935 108.64 109.756 108.766C109.577 108.891 109.396 109.013 109.212 109.13C109.028 109.248 108.842 109.361 108.653 109.47C108.464 109.58 108.272 109.685 108.079 109.786C107.886 109.886 107.69 109.983 107.492 110.075C107.294 110.168 107.095 110.256 106.893 110.339C106.691 110.422 106.488 110.501 106.283 110.576C106.078 110.651 105.871 110.721 105.663 110.786C105.455 110.852 105.245 110.913 105.034 110.969C104.824 111.025 104.612 111.077 104.398 111.124C104.185 111.171 103.971 111.213 103.756 111.251C103.541 111.289 103.326 111.321 103.109 111.35C102.893 111.378 102.676 111.401 102.458 111.42C102.241 111.439 102.023 111.452 101.805 111.461C101.587 111.47 101.369 111.475 101.151 111.474C100.932 111.474 100.714 111.468 100.496 111.458C100.278 111.448 100.061 111.433 99.8433 111.414C99.6258 111.394 99.4091 111.369 99.1929 111.34C98.9766 111.311 98.7609 111.277 98.5462 111.239C98.3315 111.2 98.1176 111.157 97.9047 111.109C97.6916 111.061 97.4799 111.008 97.2694 110.951C97.0588 110.893 96.8497 110.831 96.6418 110.765C96.6418 110.765 80.3403 105.549 80.3403 105.549C80.0162 105.445 79.6888 105.353 79.3583 105.271C79.0277 105.19 78.6948 105.12 78.3597 105.061C78.0243 105.003 77.6874 104.956 77.349 104.921C77.0105 104.885 76.6712 104.861 76.331 104.849C75.9909 104.837 75.6507 104.836 75.3106 104.847C74.9704 104.858 74.6311 104.881 74.2924 104.915C73.9538 104.95 73.6169 104.995 73.2813 105.053C72.9458 105.11 72.6126 105.179 72.2819 105.259C71.9512 105.34 71.6236 105.431 71.2991 105.534C70.9745 105.636 70.654 105.75 70.3373 105.874C70.0205 105.999 69.7084 106.134 69.4009 106.28C69.0934 106.426 68.7912 106.582 68.4945 106.749C68.1978 106.916 67.9073 107.092 67.6225 107.279C67.3378 107.465 67.0597 107.661 66.7886 107.867C66.5173 108.073 66.2534 108.287 65.9968 108.511C65.7403 108.735 65.4918 108.967 65.2511 109.207C65.0104 109.448 64.7781 109.697 64.5546 109.953C64.3309 110.21 64.1163 110.474 63.9108 110.745C63.7053 111.016 63.5092 111.294 63.3225 111.579C63.136 111.864 62.9596 112.154 62.7929 112.451C62.6262 112.748 62.47 113.05 62.3239 113.358C62.178 113.665 62.0428 113.977 61.9181 114.294C61.7935 114.611 61.68 114.931 61.5774 115.256C61.4747 115.58 61.3833 115.908 61.3031 116.239C61.2228 116.57 61.1542 116.903 61.0968 117.238C61.0394 117.574 60.9935 117.911 60.9591 118.249C60.9249 118.588 60.9021 118.927 60.8911 119.268C60.8801 119.608 60.8807 119.948 60.8929 120.288C60.9051 120.628 60.9289 120.968 60.9643 121.306C60.9997 121.645 61.0468 121.982 61.1054 122.317C61.1638 122.652 61.2336 122.985 61.3151 123.316C61.3963 123.646 61.4887 123.974 61.5926 124.298C61.5926 124.298 66.8084 140.6 66.8084 140.6C66.8748 140.808 66.9366 141.018 66.9941 141.228C67.0515 141.439 67.1041 141.65 67.1521 141.863C67.2001 142.076 67.2436 142.29 67.2822 142.505C67.3208 142.72 67.3546 142.935 67.3838 143.152C67.413 143.368 67.4375 143.585 67.4571 143.802C67.4767 144.02 67.4915 144.237 67.5017 144.455C67.5119 144.673 67.5171 144.891 67.5177 145.11C67.5183 145.328 67.5139 145.546 67.5049 145.764C67.4959 145.982 67.4819 146.2 67.4633 146.417C67.4447 146.635 67.4214 146.852 67.3932 147.068C67.365 147.285 67.3322 147.501 67.2946 147.715C67.257 147.931 67.2146 148.145 67.1675 148.358C67.1205 148.571 67.0689 148.783 67.0127 148.994C66.9563 149.205 66.8952 149.414 66.8298 149.622C66.7644 149.83 66.6943 150.037 66.6197 150.242C66.5451 150.447 66.466 150.651 66.3824 150.852C66.299 151.054 66.2109 151.254 66.1187 151.451C66.0265 151.649 65.93 151.845 65.829 152.039C65.7281 152.232 65.6231 152.423 65.5138 152.612C65.4046 152.801 65.2912 152.988 65.1737 153.171C65.0563 153.355 64.9348 153.537 64.8093 153.715C64.6839 153.894 64.5546 154.07 64.4216 154.243C64.2885 154.416 64.1517 154.586 64.011 154.752C63.8703 154.92 63.7263 155.083 63.5784 155.244C63.4306 155.405 63.2795 155.562 63.1248 155.716C62.9702 155.87 62.8121 156.02 62.6508 156.167C62.4894 156.314 62.3249 156.458 62.1574 156.597C61.99 156.737 61.8193 156.873 61.6456 157.006C61.4721 157.138 61.2957 157.266 61.1166 157.391C60.9373 157.516 60.7554 157.636 60.571 157.753C60.3865 157.869 60.1996 157.982 60.0101 158.09C59.8206 158.199 59.629 158.303 59.4349 158.403C59.4349 158.403 44.2199 166.242 44.2199 166.242C43.9173 166.398 43.6204 166.564 43.3293 166.74C43.0382 166.916 42.7532 167.102 42.4747 167.298C42.1964 167.494 41.9249 167.699 41.6606 167.913C41.3961 168.127 41.1394 168.35 40.8903 168.582C40.6411 168.814 40.4 169.055 40.1673 169.303C39.9346 169.551 39.7108 169.807 39.4957 170.071C39.2804 170.335 39.0745 170.605 38.8778 170.883C38.6811 171.161 38.4942 171.445 38.3172 171.736C38.1401 172.027 37.973 172.323 37.816 172.625C37.6591 172.927 37.5128 173.234 37.377 173.546C37.2411 173.858 37.1161 174.174 37.0018 174.495C36.8876 174.816 36.7845 175.14 36.6925 175.468C36.6004 175.795 36.5198 176.126 36.4504 176.459C36.381 176.792 36.3231 177.128 36.2765 177.465C36.2301 177.802 36.1953 178.14 36.1721 178.48C36.1487 178.819 36.137 179.159 36.137 179.5C36.137 179.84 36.1487 180.18 36.1721 180.52C36.1953 180.859 36.2301 181.198 36.2765 181.535C36.3231 181.872 36.381 182.207 36.4504 182.54C36.5198 182.874 36.6004 183.204 36.6925 183.532C36.7845 183.859 36.8876 184.183 37.0018 184.504C37.1161 184.825 37.2411 185.141 37.377 185.453C37.5128 185.765 37.6591 186.072 37.816 186.374C37.973 186.676 38.1401 186.973 38.3172 187.263C38.4942 187.554 38.6811 187.838 38.8778 188.116C39.0745 188.394 39.2804 188.665 39.4957 188.928C39.7108 189.192 39.9346 189.448 40.1673 189.697C40.4 189.945 40.6411 190.185 40.8903 190.417C41.1394 190.649 41.3961 190.872 41.6606 191.086C41.9249 191.301 42.1964 191.505 42.4747 191.701C42.7532 191.897 43.0382 192.083 43.3293 192.259C43.6204 192.435 43.9173 192.601 44.2199 192.757C44.2199 192.757 59.4349 200.597 59.4349 200.597C59.629 200.697 59.8206 200.801 60.0101 200.909C60.1996 201.017 60.3865 201.129 60.571 201.247C60.7554 201.363 60.9373 201.483 61.1166 201.607C61.2957 201.733 61.4721 201.861 61.6456 201.994C61.8193 202.126 61.99 202.262 62.1574 202.402C62.3249 202.542 62.4894 202.686 62.6508 202.832C62.8121 202.978 62.97 203.13 63.1246 203.284C63.2793 203.438 63.4306 203.594 63.5784 203.754C63.7263 203.917 63.8703 204.081 64.011 204.247C64.1517 204.413 64.2885 204.583 64.4216 204.757C64.5546 204.929 64.6839 205.105 64.8093 205.283C64.9348 205.461 65.0563 205.643 65.1737 205.827C65.2912 206.012 65.4046 206.198 65.5138 206.388C65.6231 206.576 65.7281 206.766 65.829 206.96C65.93 207.154 66.0265 207.35 66.1187 207.548C66.2109 207.746 66.299 207.944 66.3824 208.147C66.466 208.349 66.5451 208.551 66.6197 208.757C66.6943 208.963 66.7644 209.169 66.8298 209.377C66.8952 209.585 66.9563 209.795 67.0127 210.006C67.0689 210.216 67.1205 210.428 67.1675 210.642C67.2146 210.856 67.257 211.07 67.2946 211.284C67.3322 211.498 67.365 211.714 67.3932 211.93C67.4214 212.147 67.4447 212.363 67.4633 212.581C67.4819 212.799 67.4959 213.017 67.5049 213.235C67.5139 213.453 67.5181 213.671 67.5177 213.889C67.5171 214.108 67.5119 214.326 67.5017 214.544C67.4915 214.762 67.4767 214.98 67.4571 215.198C67.4375 215.414 67.413 215.63 67.3838 215.848C67.3546 216.064 67.3208 216.281 67.2822 216.495C67.2436 216.709 67.2001 216.923 67.1521 217.135C67.1041 217.349 67.0515 217.561 66.9941 217.771C66.9366 217.981 66.8748 218.192 66.8084 218.4C66.8084 218.4 61.5926 234.702 61.5926 234.702C61.4887 235.026 61.3963 235.354 61.3151 235.684C61.2336 236.014 61.1638 236.346 61.1052 236.683C61.0468 237.017 60.9997 237.355 60.9643 237.693C60.9289 238.031 60.9051 238.371 60.8929 238.712C60.8807 239.052 60.8801 239.392 60.8911 239.732C60.9021 240.072 60.9249 240.413 60.9591 240.751C60.9935 241.089 61.0394 241.425 61.0968 241.761C61.1542 242.095 61.2228 242.43 61.3031 242.76C61.3833 243.09 61.4747 243.418 61.5774 243.744C61.68 244.068 61.7935 244.388 61.9181 244.705C62.0428 245.023 62.178 245.335 62.3239 245.641C62.47 245.949 62.6262 246.251 62.7929 246.548C62.9596 246.846 63.136 247.136 63.3225 247.42C63.5092 247.706 63.7053 247.984 63.9108 248.254C64.1163 248.524 64.3309 248.789 64.5546 249.047C64.7781 249.303 65.0102 249.551 65.2509 249.791C65.4916 250.033 65.7403 250.265 65.9968 250.487C66.2534 250.712 66.5173 250.926 66.7886 251.132C67.0597 251.338 67.3376 251.534 67.6223 251.72C67.9071 251.906 68.1978 252.084 68.4945 252.25C68.7912 252.416 69.0934 252.573 69.4009 252.719C69.7084 252.865 70.0205 253.001 70.3373 253.125C70.654 253.249 70.9745 253.363 71.2991 253.465C71.6236 253.567 71.9512 253.659 72.2819 253.739C72.6126 253.821 72.9458 253.889 73.2813 253.947C73.6169 254.005 73.9538 254.049 74.2924 254.083C74.6311 254.117 74.9704 254.141 75.3106 254.151C75.6507 254.163 75.9909 254.163 76.331 254.151C76.6712 254.137 77.0105 254.113 77.349 254.079C77.6874 254.043 78.0243 253.995 78.3597 253.937C78.6948 253.879 79.0277 253.809 79.3583 253.729C79.6886 253.647 80.016 253.555 80.3403 253.451C80.3403 253.451 96.6418 248.234 96.6418 248.234C96.8497 248.168 97.0588 248.106 97.2694 248.048C97.4801 247.99 97.6918 247.938 97.9047 247.89C98.1176 247.842 98.3315 247.798 98.5462 247.76C98.7609 247.722 98.9766 247.688 99.1929 247.658C99.4091 247.628 99.6258 247.604 99.8433 247.586C100.061 247.566 100.278 247.55 100.496 247.54C100.714 247.53 100.932 247.526 101.151 247.524C101.369 247.524 101.587 247.528 101.805 247.538C102.023 247.548 102.241 247.562 102.458 247.58C102.676 247.598 102.893 247.622 103.109 247.65C103.326 247.678 103.541 247.71 103.756 247.748C103.971 247.786 104.185 247.828 104.398 247.874C104.612 247.922 104.824 247.974 105.035 248.03C105.245 248.086 105.455 248.146 105.663 248.212C105.871 248.278 106.078 248.348 106.283 248.422C106.488 248.496 106.691 248.577 106.893 248.661C107.095 248.743 107.294 248.831 107.492 248.925C107.69 249.017 107.886 249.113 108.079 249.213C108.272 249.315 108.464 249.419 108.653 249.529C108.842 249.639 109.028 249.751 109.212 249.869C109.396 249.987 109.577 250.107 109.756 250.233C109.935 250.359 110.11 250.487 110.283 250.622C110.456 250.756 110.626 250.892 110.793 251.032C110.96 251.172 111.123 251.316 111.284 251.464C111.445 251.612 111.602 251.764 111.756 251.918C111.91 252.072 112.06 252.23 112.208 252.392C112.355 252.554 112.498 252.719 112.638 252.885C112.778 253.053 112.914 253.223 113.046 253.397C113.178 253.571 113.307 253.747 113.431 253.927C113.556 254.105 113.676 254.287 113.793 254.471C113.909 254.658 114.022 254.844 114.13 255.034C114.239 255.224 114.343 255.414 114.443 255.608C114.443 255.608 122.282 270.823 122.282 270.823C122.437 271.126 122.604 271.424 122.78 271.716C122.956 272.006 123.142 272.292 123.338 272.57C123.533 272.848 123.738 273.119 123.952 273.385C124.167 273.649 124.39 273.905 124.622 274.155C124.854 274.403 125.094 274.643 125.342 274.878C125.59 275.11 125.846 275.334 126.11 275.55C126.374 275.764 126.645 275.97 126.922 276.166C127.2 276.364 127.484 276.55 127.775 276.728C128.066 276.904 128.362 277.071 128.664 277.229C128.966 277.387 129.273 277.533 129.585 277.667C129.897 277.803 130.213 277.929 130.534 278.043C130.855 278.157 131.179 278.261 131.507 278.353C131.834 278.445 132.165 278.525 132.498 278.595C132.831 278.665 133.166 278.721 133.503 278.767C133.84 278.813 134.179 278.849 134.518 278.873C134.858 278.895 135.198 278.907 135.538 278.907C135.879 278.907 136.218 278.895 136.558 278.873C136.898 278.849 137.236 278.813 137.573 278.767C137.91 278.721 138.246 278.665 138.579 278.595C138.912 278.525 139.242 278.445 139.57 278.353C139.898 278.261 140.222 278.157 140.542 278.043C140.863 277.929 141.179 277.803 141.491 277.669C141.803 277.533 142.111 277.387 142.413 277.229C142.714 277.071 143.011 276.904 143.301 276.728C143.592 276.55 143.876 276.364 144.154 276.166C144.432 275.97 144.702 275.764 144.966 275.55C145.23 275.334 145.486 275.11 145.734 274.878C145.983 274.643 146.223 274.403 146.455 274.155C146.687 273.905 146.91 273.649 147.124 273.385C147.338 273.119 147.543 272.848 147.739 272.57C147.935 272.292 148.121 272.006 148.297 271.716C148.473 271.424 148.639 271.126 148.795 270.823C148.795 270.823 156.634 255.608 156.634 255.608C156.734 255.414 156.838 255.224 156.946 255.034C157.054 254.844 157.167 254.658 157.284 254.471C157.4 254.287 157.521 254.105 157.645 253.927C157.77 253.747 157.898 253.571 158.03 253.397C158.163 253.223 158.299 253.053 158.439 252.885C158.579 252.719 158.722 252.554 158.869 252.392C159.016 252.23 159.167 252.072 159.32 251.918C159.474 251.764 159.632 251.612 159.792 251.464C159.953 251.316 160.117 251.172 160.283 251.032C160.451 250.892 160.62 250.756 160.793 250.622C160.966 250.487 161.142 250.359 161.321 250.233C161.499 250.107 161.68 249.987 161.864 249.869C162.048 249.751 162.235 249.639 162.424 249.529C162.613 249.419 162.804 249.315 162.997 249.213C163.191 249.113 163.387 249.017 163.584 248.925C163.782 248.831 163.982 248.743 164.183 248.661C164.385 248.577 164.588 248.496 164.794 248.422C164.999 248.348 165.205 248.278 165.413 248.212C165.622 248.146 165.831 248.086 166.042 248.03C166.253 247.974 166.465 247.922 166.678 247.874C166.891 247.828 167.105 247.786 167.32 247.748C167.535 247.71 167.751 247.678 167.967 247.65C168.184 247.622 168.4 247.598 168.618 247.58C168.835 247.562 169.053 247.548 169.271 247.538C169.489 247.528 169.707 247.524 169.926 247.524C170.144 247.526 170.362 247.53 170.58 247.54C170.798 247.55 171.016 247.566 171.233 247.586C171.451 247.604 171.667 247.628 171.884 247.658C172.1 247.688 172.316 247.722 172.53 247.76C172.745 247.798 172.959 247.842 173.172 247.89C173.385 247.938 173.596 247.99 173.807 248.048C174.018 248.106 174.227 248.168 174.435 248.234C174.435 248.234 190.736 253.451 190.736 253.451C191.06 253.555 191.388 253.647 191.718 253.729C192.049 253.809 192.382 253.879 192.717 253.937C193.052 253.995 193.389 254.043 193.728 254.079C194.066 254.113 194.405 254.137 194.745 254.151C195.086 254.163 195.426 254.163 195.766 254.151C196.106 254.141 196.445 254.117 196.784 254.083C197.123 254.049 197.46 254.005 197.795 253.947C198.131 253.889 198.464 253.821 198.794 253.739C199.125 253.659 199.453 253.567 199.777 253.465C200.102 253.363 200.423 253.249 200.739 253.125C201.057 253.001 201.369 252.865 201.675 252.719C201.983 252.573 202.285 252.416 202.581 252.25C202.88 252.084 203.17 251.906 203.454 251.72C203.738 251.534 204.016 251.338 204.288 251.132C204.558 250.926 204.822 250.712 205.081 250.487C205.337 250.265 205.585 250.033 205.825 249.791C206.067 249.551 206.299 249.303 206.521 249.047C206.745 248.789 206.959 248.524 207.165 248.254C207.372 247.984 207.568 247.706 207.754 247.42C207.94 247.136 208.118 246.846 208.284 246.548C208.45 246.251 208.606 245.949 208.752 245.641C208.898 245.335 209.034 245.023 209.158 244.705C209.282 244.388 209.396 244.068 209.498 243.744C209.6 243.418 209.692 243.09 209.773 242.76C209.855 242.43 209.923 242.095 209.981 241.761C210.039 241.425 210.083 241.089 210.117 240.751C210.151 240.413 210.175 240.072 210.185 239.732C210.197 239.392 210.197 239.052 210.183 238.712C210.171 238.371 210.147 238.031 210.113 237.693C210.077 237.355 210.029 237.017 209.971 236.683C209.913 236.346 209.843 236.014 209.761 235.684C209.678 235.354 209.586 235.026 209.484 234.702C209.484 234.702 204.268 218.4 204.268 218.4C204.202 218.192 204.14 217.981 204.082 217.771C204.024 217.561 203.972 217.349 203.924 217.135C203.876 216.923 203.832 216.709 203.794 216.495C203.756 216.281 203.722 216.064 203.692 215.848C203.662 215.63 203.638 215.414 203.62 215.198C203.6 214.98 203.584 214.762 203.574 214.544C203.564 214.326 203.56 214.108 203.558 213.889C203.558 213.671 203.562 213.453 203.572 213.235C203.582 213.017 203.596 212.799 203.614 212.581C203.632 212.363 203.656 212.147 203.684 211.93C203.712 211.714 203.744 211.498 203.782 211.284C203.82 211.07 203.862 210.856 203.908 210.642C203.956 210.428 204.008 210.216 204.064 210.006C204.12 209.795 204.18 209.585 204.246 209.377C204.312 209.169 204.382 208.963 204.456 208.757C204.53 208.551 204.61 208.349 204.694 208.147C204.776 207.944 204.864 207.746 204.958 207.548C205.051 207.35 205.147 207.154 205.247 206.96C205.349 206.766 205.453 206.576 205.563 206.388C205.673 206.198 205.785 206.012 205.903 205.827C206.021 205.643 206.141 205.461 206.267 205.283C206.393 205.105 206.521 204.929 206.655 204.757C206.789 204.583 206.925 204.413 207.065 204.247C207.205 204.081 207.349 203.917 207.498 203.754C207.646 203.594 207.798 203.438 207.952 203.284C208.106 203.13 208.264 202.978 208.426 202.832C208.588 202.686 208.752 202.542 208.918 202.402C209.086 202.262 209.256 202.126 209.43 201.994C209.604 201.861 209.781 201.733 209.961 201.607C210.139 201.483 210.321 201.363 210.505 201.247C210.691 201.129 210.877 201.017 211.067 200.909C211.257 200.801 211.447 200.697 211.641 200.597C211.641 200.597 226.856 192.757 226.856 192.757C227.158 192.601 227.456 192.435 227.748 192.259C228.038 192.083 228.324 191.897 228.602 191.701C228.881 191.505 229.151 191.301 229.417 191.086C229.681 190.872 229.937 190.649 230.187 190.417C230.435 190.185 230.675 189.945 230.909 189.697C231.142 189.448 231.366 189.192 231.582 188.928C231.796 188.665 232.002 188.394 232.198 188.116C232.396 187.838 232.582 187.554 232.76 187.263C232.936 186.973 233.102 186.676 233.26 186.374C233.418 186.072 233.565 185.765 233.699 185.453C233.835 185.141 233.961 184.825 234.075 184.504C234.189 184.183 234.293 183.859 234.385 183.532C234.477 183.204 234.557 182.874 234.627 182.54C234.697 182.207 234.753 181.872 234.799 181.535C234.845 181.198 234.881 180.859 234.905 180.52C234.927 180.18 234.939 179.84 234.939 179.5C234.939 179.159 234.927 178.819 234.905 178.48C234.881 178.14 234.845 177.802 234.799 177.464C234.753 177.127 234.697 176.792 234.627 176.459C234.557 176.126 234.477 175.795 234.385 175.467C234.293 175.14 234.189 174.816 234.075 174.495C233.961 174.174 233.835 173.858 233.699 173.546C233.565 173.234 233.418 172.927 233.26 172.625C233.102 172.323 232.936 172.027 232.76 171.736C232.582 171.445 232.396 171.161 232.198 170.883C232.002 170.605 231.796 170.335 231.582 170.071C231.366 169.807 231.142 169.551 230.909 169.303C230.675 169.055 230.435 168.814 230.187 168.582C229.937 168.35 229.681 168.127 229.417 167.913C229.151 167.699 228.881 167.494 228.602 167.298C228.324 167.102 228.038 166.916 227.748 166.74C227.456 166.564 227.158 166.398 226.856 166.242C226.856 166.242 211.641 158.403 211.641 158.403C211.447 158.303 211.257 158.199 211.067 158.09C210.877 157.982 210.691 157.869 210.505 157.753C210.321 157.636 210.139 157.516 209.961 157.391C209.781 157.266 209.604 157.138 209.43 157.006C209.256 156.873 209.086 156.737 208.918 156.597C208.752 156.458 208.588 156.314 208.426 156.167C208.264 156.02 208.106 155.87 207.952 155.716C207.798 155.562 207.646 155.405 207.498 155.244C207.349 155.083 207.205 154.92 207.065 154.752C206.925 154.586 206.789 154.416 206.655 154.243C206.521 154.07 206.393 153.894 206.267 153.715C206.141 153.537 206.021 153.355 205.903 153.171C205.785 152.988 205.673 152.801 205.563 152.612C205.453 152.423 205.349 152.232 205.247 152.039C205.147 151.845 205.051 151.649 204.958 151.451C204.864 151.254 204.776 151.054 204.694 150.852C204.61 150.651 204.53 150.447 204.456 150.242C204.382 150.037 204.312 149.83 204.246 149.622C204.18 149.414 204.12 149.205 204.064 148.994C204.008 148.783 203.956 148.571 203.908 148.358C203.862 148.145 203.82 147.931 203.782 147.715C203.744 147.501 203.712 147.285 203.684 147.068C203.656 146.852 203.632 146.635 203.614 146.417C203.596 146.2 203.582 145.982 203.572 145.764C203.562 145.546 203.558 145.328 203.558 145.11C203.56 144.891 203.564 144.673 203.574 144.455C203.584 144.237 203.6 144.02 203.62 143.802C203.638 143.585 203.662 143.368 203.692 143.152C203.722 142.935 203.756 142.72 203.794 142.505C203.832 142.29 203.876 142.076 203.924 141.863C203.972 141.65 204.024 141.439 204.082 141.228C204.14 141.018 204.202 140.808 204.268 140.6C204.268 140.6 209.484 124.298 209.484 124.298C209.586 123.974 209.678 123.646 209.761 123.316C209.843 122.985 209.913 122.652 209.971 122.317C210.029 121.982 210.077 121.645 210.113 121.306C210.147 120.968 210.171 120.628 210.183 120.288C210.197 119.948 210.197 119.608 210.185 119.268C210.175 118.927 210.151 118.588 210.117 118.249C210.083 117.911 210.039 117.574 209.981 117.238C209.923 116.903 209.855 116.57 209.773 116.239C209.692 115.908 209.6 115.58 209.498 115.256C209.396 114.931 209.282 114.611 209.158 114.294C209.034 113.977 208.898 113.665 208.752 113.358C208.606 113.05 208.45 112.748 208.284 112.451C208.118 112.154 207.94 111.864 207.754 111.579C207.568 111.294 207.372 111.016 207.165 110.745C206.959 110.474 206.745 110.21 206.521 109.953C206.299 109.697 206.067 109.448 205.825 109.207C205.585 108.967 205.337 108.735 205.081 108.511C204.822 108.287 204.558 108.073 204.288 107.867C204.016 107.661 203.738 107.465 203.454 107.279C203.17 107.092 202.88 106.916 202.581 106.749C202.285 106.582 201.983 106.426 201.675 106.28C201.369 106.134 201.057 105.999 200.739 105.874C200.423 105.75 200.102 105.636 199.777 105.533C199.453 105.431 199.125 105.34 198.794 105.259C198.464 105.179 198.131 105.11 197.795 105.053C197.46 104.995 197.123 104.95 196.784 104.915C196.445 104.881 196.106 104.858 195.766 104.847C195.426 104.836 195.086 104.837 194.745 104.849C194.405 104.861 194.066 104.885 193.728 104.921C193.389 104.956 193.052 105.003 192.717 105.061C192.382 105.12 192.049 105.19 191.718 105.271C191.388 105.353 191.06 105.445 190.736 105.549C190.736 105.549 174.435 110.765 174.435 110.765C174.227 110.831 174.018 110.893 173.807 110.951C173.596 111.008 173.385 111.061 173.172 111.109C172.959 111.157 172.745 111.2 172.53 111.239C172.316 111.277 172.1 111.311 171.884 111.34C171.667 111.369 171.451 111.394 171.233 111.414C171.016 111.433 170.798 111.448 170.58 111.458C170.362 111.468 170.144 111.474 169.926 111.474C169.707 111.475 169.489 111.47 169.271 111.461C169.053 111.452 168.835 111.439 168.618 111.42C168.4 111.401 168.184 111.378 167.967 111.35C167.751 111.321 167.535 111.289 167.32 111.251C167.105 111.213 166.891 111.171 166.678 111.124C166.465 111.077 166.253 111.025 166.042 110.969C165.831 110.913 165.622 110.852 165.413 110.786C165.205 110.721 164.999 110.651 164.794 110.576C164.588 110.501 164.385 110.422 164.183 110.339C163.982 110.256 163.782 110.168 163.584 110.075C163.387 109.983 163.191 109.886 162.997 109.786C162.804 109.685 162.613 109.58 162.424 109.47C162.235 109.361 162.048 109.248 161.865 109.13C161.681 109.013 161.499 108.891 161.321 108.766C161.142 108.64 160.966 108.511 160.793 108.378C160.62 108.245 160.451 108.108 160.283 107.967C160.117 107.827 159.953 107.683 159.792 107.535C159.632 107.387 159.474 107.236 159.32 107.081C159.167 106.926 159.016 106.768 158.869 106.607C158.722 106.446 158.579 106.281 158.439 106.114C158.299 105.946 158.163 105.775 158.03 105.602C157.898 105.428 157.77 105.252 157.645 105.073C157.521 104.894 157.4 104.712 157.284 104.527C157.167 104.343 157.054 104.156 156.946 103.966C156.838 103.777 156.734 103.585 156.634 103.391C156.634 103.391 148.795 88.1749 148.795 88.1749Z" fill="#FFFFFF" fill-rule="evenodd" transform="translate(30.443 0)" />
        <path d="M41.0173 0C63.6737 0 82.0346 18.3623 82.0346 41.0202C82.0346 41.0202 82.0346 41.0202 82.0346 41.0202C82.0346 63.6782 63.6737 82.0404 41.0173 82.0404C41.0173 82.0404 41.0173 82.0404 41.0173 82.0404C18.361 82.0404 0 63.6782 0 41.0202C0 41.0202 0 41.0202 0 41.0202C0 18.3623 18.361 0 41.0173 0Z" fill="#FFFFFF" fill-rule="evenodd" transform="translate(124.483 138.068)" />
      </g>
    </g>
    <rect width="512" height="512" />
  </g>
</svg>